<svg width="1600" height="960" viewBox="0 0 1600 960" fill="none" xmlns="http://www.w3.org/2000/svg">
  <rect width="1600" height="960" rx="40" fill="#F6F1E8"/>
  <text x="96" y="112" fill="#15251C" font-family="Arial, sans-serif" font-size="52" font-weight="700">Architecture diagram placeholder</text>
  <text x="96" y="164" fill="#475569" font-family="Arial, sans-serif" font-size="28">Replace this with the final Learnable architecture diagram.</text>
  <rect x="100" y="240" width="300" height="160" rx="28" fill="#15251C"/>
  <text x="170" y="322" fill="#FFFDF9" font-family="Arial, sans-serif" font-size="36" font-weight="700">Web App</text>
  <rect x="470" y="240" width="300" height="160" rx="28" fill="#CF6B4C"/>
  <text x="562" y="322" fill="#FFFDF9" font-family="Arial, sans-serif" font-size="36" font-weight="700">API</text>
  <rect x="840" y="120" width="280" height="140" rx="28" fill="#A6B58E"/>
  <text x="900" y="195" fill="#15251C" font-family="Arial, sans-serif" font-size="32" font-weight="700">Ingest</text>
  <rect x="840" y="300" width="280" height="140" rx="28" fill="#A6B58E"/>
  <text x="860" y="375" fill="#15251C" font-family="Arial, sans-serif" font-size="32" font-weight="700">Orchestrator</text>
  <rect x="840" y="480" width="280" height="140" rx="28" fill="#A6B58E"/>
  <text x="862" y="555" fill="#15251C" font-family="Arial, sans-serif" font-size="32" font-weight="700">Model Gateway</text>
  <rect x="1210" y="120" width="280" height="140" rx="28" fill="#FFFDF9" stroke="#1E1B18" stroke-opacity="0.12" stroke-width="2"/>
  <text x="1280" y="195" fill="#15251C" font-family="Arial, sans-serif" font-size="30" font-weight="700">Postgres</text>
  <rect x="1210" y="300" width="280" height="140" rx="28" fill="#FFFDF9" stroke="#1E1B18" stroke-opacity="0.12" stroke-width="2"/>
  <text x="1310" y="375" fill="#15251C" font-family="Arial, sans-serif" font-size="30" font-weight="700">Redis</text>
  <rect x="1210" y="480" width="280" height="140" rx="28" fill="#FFFDF9" stroke="#1E1B18" stroke-opacity="0.12" stroke-width="2"/>
  <text x="1300" y="555" fill="#15251C" font-family="Arial, sans-serif" font-size="30" font-weight="700">Qdrant</text>
  <rect x="1210" y="660" width="280" height="140" rx="28" fill="#FFFDF9" stroke="#1E1B18" stroke-opacity="0.12" stroke-width="2"/>
  <text x="1318" y="735" fill="#15251C" font-family="Arial, sans-serif" font-size="30" font-weight="700">MinIO</text>
  <path d="M400 320H470" stroke="#15251C" stroke-width="10" stroke-linecap="round"/>
  <path d="M770 320H840" stroke="#15251C" stroke-width="10" stroke-linecap="round"/>
  <path d="M1120 190H1210" stroke="#15251C" stroke-width="10" stroke-linecap="round"/>
  <path d="M1120 370H1210" stroke="#15251C" stroke-width="10" stroke-linecap="round"/>
  <path d="M1120 550H1210" stroke="#15251C" stroke-width="10" stroke-linecap="round"/>
  <text x="96" y="874" fill="#475569" font-family="Arial, sans-serif" font-size="26">Path: docs/assets/readme/architecture-placeholder.svg</text>
</svg>
