<svg width="1600" height="900" viewBox="0 0 1600 900" fill="none" xmlns="http://www.w3.org/2000/svg">
  <rect width="1600" height="900" rx="40" fill="#F5F0E6"/>
  <text x="96" y="112" fill="#15251C" font-family="Arial, sans-serif" font-size="52" font-weight="700">Workflow diagram placeholder</text>
  <text x="96" y="164" fill="#475569" font-family="Arial, sans-serif" font-size="28">Replace this with the final source-to-report-to-learning workflow diagram.</text>
  <rect x="100" y="290" width="190" height="110" rx="24" fill="#15251C"/>
  <text x="148" y="356" fill="#FFFDF9" font-family="Arial, sans-serif" font-size="30" font-weight="700">Ingest</text>
  <rect x="350" y="290" width="190" height="110" rx="24" fill="#A6B58E"/>
  <text x="395" y="356" fill="#15251C" font-family="Arial, sans-serif" font-size="30" font-weight="700">Parse</text>
  <rect x="600" y="290" width="190" height="110" rx="24" fill="#E9B16D"/>
  <text x="638" y="356" fill="#15251C" font-family="Arial, sans-serif" font-size="30" font-weight="700">Chunk</text>
  <rect x="850" y="290" width="190" height="110" rx="24" fill="#CF6B4C"/>
  <text x="878" y="356" fill="#FFFDF9" font-family="Arial, sans-serif" font-size="30" font-weight="700">Retrieve</text>
  <rect x="1100" y="290" width="190" height="110" rx="24" fill="#15251C"/>
  <text x="1127" y="356" fill="#FFFDF9" font-family="Arial, sans-serif" font-size="30" font-weight="700">Synthesize</text>
  <rect x="1350" y="290" width="150" height="110" rx="24" fill="#A6B58E"/>
  <text x="1380" y="356" fill="#15251C" font-family="Arial, sans-serif" font-size="30" font-weight="700">Learn</text>
  <path d="M290 345H350" stroke="#15251C" stroke-width="10" stroke-linecap="round"/>
  <path d="M540 345H600" stroke="#15251C" stroke-width="10" stroke-linecap="round"/>
  <path d="M790 345H850" stroke="#15251C" stroke-width="10" stroke-linecap="round"/>
  <path d="M1040 345H1100" stroke="#15251C" stroke-width="10" stroke-linecap="round"/>
  <path d="M1290 345H1350" stroke="#15251C" stroke-width="10" stroke-linecap="round"/>
  <text x="130" y="560" fill="#15251C" font-family="Arial, sans-serif" font-size="32" font-weight="700">Workspace sources become grounded evidence.</text>
  <text x="130" y="612" fill="#475569" font-family="Arial, sans-serif" font-size="28">Reports, flashcards, quizzes, study plans, and mastery are all derived from the same evidence base.</text>
  <text x="96" y="812" fill="#475569" font-family="Arial, sans-serif" font-size="26">Path: docs/assets/readme/workflow-placeholder.svg</text>
</svg>
